<svg width="78" height="34" viewBox="0 0 78 34" fill="none" xmlns="http://www.w3.org/2000/svg">
<rect width="77.6087" height="34" rx="2" fill="#0C0E0F"/>
<rect x="0.5" y="0.5" width="76.6087" height="33" rx="1.5" stroke="white" stroke-opacity="0.05"/>
<path d="M22.6069 25.5732H24.589V26.9108H21.0937V19.7973H22.6069V25.5732Z" fill="#D3001F"/>
<path d="M30.4608 26.9817C29.8767 26.9817 29.3399 26.8263 28.8503 26.5156C28.3665 26.2048 27.9801 25.7725 27.6911 25.2186C27.4079 24.6579 27.2663 24.0296 27.2663 23.3338C27.2663 22.638 27.4079 22.0131 27.6911 21.4592C27.9801 20.9052 28.3665 20.4729 28.8503 20.1621C29.3399 19.8514 29.8767 19.696 30.4608 19.696C31.0448 19.696 31.5787 19.8514 32.0624 20.1621C32.552 20.4729 32.9355 20.9052 33.2128 21.4592C33.4959 22.0131 33.6375 22.638 33.6375 23.3338C33.6375 24.0296 33.4959 24.6579 33.2128 25.2186C32.9296 25.7725 32.5461 26.2048 32.0624 26.5156C31.5787 26.8263 31.0448 26.9817 30.4608 26.9817ZM30.4608 25.401C30.9563 25.401 31.3516 25.2118 31.6465 24.8335C31.9474 24.4552 32.0978 23.9553 32.0978 23.3338C32.0978 22.7055 31.9474 22.2056 31.6465 21.8341C31.3516 21.4558 30.9563 21.2666 30.4608 21.2666C29.9593 21.2666 29.5582 21.4524 29.2573 21.824C28.9624 22.1955 28.8149 22.6988 28.8149 23.3338C28.8149 23.962 28.9624 24.4653 29.2573 24.8436C29.5582 25.2152 29.9593 25.401 30.4608 25.401Z" fill="#D3001F"/>
<path d="M39.6293 26.9817C39.0453 26.9817 38.5085 26.8263 38.0189 26.5156C37.5351 26.2048 37.1487 25.7725 36.8597 25.2186C36.5765 24.6579 36.4349 24.0296 36.4349 23.3338C36.4349 22.638 36.5765 22.0131 36.8597 21.4592C37.1487 20.9052 37.5351 20.4729 38.0189 20.1621C38.5085 19.8514 39.0453 19.696 39.6293 19.696C40.2134 19.696 40.7472 19.8514 41.231 20.1621C41.7206 20.4729 42.1041 20.9052 42.3813 21.4592C42.6645 22.0131 42.8061 22.638 42.8061 23.3338C42.8061 24.0296 42.6645 24.6579 42.3813 25.2186C42.0982 25.7725 41.7147 26.2048 41.231 26.5156C40.7472 26.8263 40.2134 26.9817 39.6293 26.9817ZM39.6293 25.401C40.1249 25.401 40.5201 25.2118 40.8151 24.8335C41.1159 24.4552 41.2664 23.9553 41.2664 23.3338C41.2664 22.7055 41.1159 22.2056 40.8151 21.8341C40.5201 21.4558 40.1249 21.2666 39.6293 21.2666C39.1279 21.2666 38.7268 21.4524 38.4259 21.824C38.1309 22.1955 37.9835 22.6988 37.9835 23.3338C37.9835 23.962 38.1309 24.4653 38.4259 24.8436C38.7268 25.2152 39.1279 25.401 39.6293 25.401Z" fill="#D3001F"/>
<path d="M50.5942 22.0874C50.5942 22.4995 50.5116 22.8778 50.3465 23.2223C50.1813 23.5601 49.9276 23.8337 49.5855 24.0431C49.2433 24.2525 48.8186 24.3572 48.3112 24.3572H47.3732V26.9108H45.8601V19.7973H48.3112C48.8068 19.7973 49.2256 19.8953 49.5678 20.0912C49.9099 20.2871 50.1665 20.5573 50.3376 20.9018C50.5087 21.2464 50.5942 21.6416 50.5942 22.0874ZM48.1962 22.9791C48.4853 22.9791 48.7006 22.9014 48.8422 22.7461C48.9837 22.5907 49.0545 22.3711 49.0545 22.0874C49.0545 21.8037 48.9837 21.5841 48.8422 21.4288C48.7006 21.2734 48.4853 21.1957 48.1962 21.1957H47.3732V22.9791H48.1962Z" fill="#D3001F"/>
<path d="M55.8418 26.9817C55.3876 26.9817 54.9805 26.8973 54.6207 26.7284C54.2608 26.5595 53.9717 26.3096 53.7535 25.9785C53.5411 25.6475 53.429 25.249 53.4172 24.7828H55.0277C55.0513 25.0463 55.1309 25.249 55.2666 25.3908C55.4023 25.5259 55.5793 25.5935 55.7976 25.5935C56.0217 25.5935 56.1987 25.5361 56.3285 25.4212C56.4583 25.2996 56.5232 25.1341 56.5232 24.9247C56.5232 24.7491 56.4701 24.6038 56.3639 24.489C56.2636 24.3741 56.1368 24.2796 55.9834 24.2052C55.8359 24.1309 55.6235 24.0465 55.3463 23.9519C54.9451 23.8101 54.6177 23.6682 54.364 23.5263C54.1104 23.3845 53.8921 23.175 53.7092 22.8981C53.5263 22.6211 53.4349 22.2597 53.4349 21.8138C53.4349 21.1518 53.6443 20.635 54.0632 20.2635C54.482 19.8852 55.0277 19.696 55.7002 19.696C56.3845 19.696 56.9361 19.8852 57.3549 20.2635C57.7738 20.635 57.998 21.1552 58.0275 21.824H56.3904C56.3786 21.5943 56.3049 21.4153 56.1692 21.2869C56.0335 21.1518 55.8595 21.0842 55.6471 21.0842C55.4642 21.0842 55.3168 21.1417 55.2047 21.2565C55.0926 21.3646 55.0366 21.5233 55.0366 21.7328C55.0366 21.9624 55.1309 22.1415 55.3197 22.2698C55.5085 22.3982 55.8034 22.5367 56.2046 22.6853C56.6057 22.8406 56.9302 22.9893 57.178 23.1311C57.4316 23.273 57.6499 23.479 57.8328 23.7493C58.0157 24.0195 58.1071 24.3674 58.1071 24.793C58.1071 25.1983 58.0157 25.5665 57.8328 25.8975C57.6558 26.2285 57.3962 26.4919 57.0541 26.6879C56.7119 26.8838 56.3078 26.9817 55.8418 26.9817Z" fill="#D3001F"/>
<path d="M20.551 9.94539C20.4797 9.69357 20.3797 9.47106 20.2508 9.27788C20.1219 9.08125 19.9642 8.91566 19.7776 8.78113C19.5944 8.64314 19.3841 8.53792 19.1467 8.46548C18.9126 8.39304 18.6532 8.35682 18.3682 8.35682C17.8357 8.35682 17.3676 8.49135 16.9639 8.76043C16.5637 9.0295 16.2516 9.42104 16.0278 9.93504C15.8039 10.4456 15.692 11.07 15.692 11.8082C15.692 12.5464 15.8022 13.1743 16.0227 13.6917C16.2432 14.2092 16.5552 14.6042 16.9589 14.8767C17.3625 15.1458 17.8391 15.2803 18.3886 15.2803C18.8872 15.2803 19.3129 15.1906 19.6657 15.0112C20.0218 14.8284 20.2932 14.5714 20.4797 14.2402C20.6697 13.9091 20.7647 13.5175 20.7647 13.0656L21.2124 13.1329H18.526V11.446H22.8864V12.781C22.8864 13.7124 22.693 14.5128 22.3063 15.182C21.9196 15.8478 21.3871 16.3618 20.7087 16.724C20.0303 17.0828 19.2535 17.2622 18.3784 17.2622C17.4015 17.2622 16.5433 17.0431 15.8039 16.605C15.0644 16.1634 14.4878 15.5373 14.074 14.7266C13.6635 13.9125 13.4583 12.9466 13.4583 11.8289C13.4583 10.9699 13.5804 10.2041 13.8247 9.53143C14.0723 8.85529 14.4183 8.28265 14.8626 7.81349C15.307 7.34434 15.8242 6.98729 16.4144 6.74237C17.0047 6.49744 17.644 6.37498 18.3326 6.37498C18.9228 6.37498 19.4723 6.46294 19.9811 6.63888C20.4899 6.81136 20.9411 7.05629 21.3345 7.37366C21.7314 7.69103 22.0553 8.06877 22.3063 8.50688C22.5573 8.94154 22.7185 9.42104 22.7897 9.94539H20.551Z" fill="#FFC107"/>
<path d="M26.0155 17.1173H23.6546L27.2518 6.51986H30.0909L33.6831 17.1173H31.3222L28.7121 8.94154H28.6307L26.0155 17.1173ZM25.8679 12.9518H31.4443V14.7008H25.8679V12.9518Z" fill="#FFC107"/>
<path d="M34.9372 6.51986H37.6542L40.5238 13.64H40.646L43.5156 6.51986H46.2326V17.1173H44.0956V10.2196H44.0091L41.3125 17.0655H39.8573L37.1607 10.1938H37.0742V17.1173H34.9372V6.51986Z" fill="#FFC107"/>
<path d="M48.0477 17.1173V6.51986H55.0691V8.36716H50.2508V10.8923H54.7079V12.7396H50.2508V15.27H55.0895V17.1173H48.0477Z" fill="#FFC107"/>
<path d="M62.4734 9.56765C62.4327 9.15024 62.258 8.82597 61.9493 8.59484C61.6407 8.36371 61.2218 8.24815 60.6926 8.24815C60.3331 8.24815 60.0295 8.2999 59.7819 8.40339C59.5342 8.50343 59.3443 8.64314 59.212 8.82252C59.0831 9.00191 59.0187 9.20544 59.0187 9.43311C59.0119 9.62285 59.0509 9.78843 59.1357 9.92987C59.2239 10.0713 59.3443 10.1938 59.4969 10.2973C59.6496 10.3973 59.826 10.4853 60.0261 10.5612C60.2262 10.6336 60.4399 10.6957 60.6672 10.7474L61.6034 10.9751C62.0579 11.0786 62.4751 11.2166 62.855 11.3891C63.2349 11.5616 63.5639 11.7737 63.8421 12.0255C64.1202 12.2774 64.3356 12.574 64.4882 12.9156C64.6443 13.2571 64.724 13.6486 64.7274 14.0902C64.724 14.7387 64.5612 15.301 64.2389 15.7771C63.9201 16.2497 63.4588 16.6171 62.855 16.8792C62.2546 17.138 61.5304 17.2673 60.6824 17.2673C59.8412 17.2673 59.1086 17.1362 58.4844 16.8741C57.8637 16.6119 57.3786 16.2238 57.0293 15.7098C56.6833 15.1923 56.5018 14.5524 56.4848 13.7901H58.6167C58.6405 14.1454 58.7405 14.442 58.9169 14.6801C59.0967 14.9146 59.3358 15.0923 59.6343 15.213C59.9362 15.3303 60.2771 15.389 60.657 15.389C61.0301 15.389 61.354 15.3338 61.6288 15.2234C61.9069 15.113 62.1223 14.9595 62.275 14.7629C62.4276 14.5662 62.5039 14.3403 62.5039 14.085C62.5039 13.847 62.4344 13.6469 62.2953 13.4848C62.1596 13.3226 61.9595 13.1846 61.6949 13.0708C61.4338 12.957 61.1132 12.8535 60.7333 12.7603L59.5987 12.4706C58.7202 12.2532 58.0265 11.9134 57.5177 11.4512C57.0089 10.9889 56.7562 10.3663 56.7596 9.58317C56.7562 8.94154 56.9241 8.38096 57.2633 7.90146C57.6059 7.42195 58.0757 7.04766 58.6727 6.77859C59.2697 6.50951 59.9481 6.37498 60.7079 6.37498C61.4813 6.37498 62.1563 6.50951 62.7329 6.77859C63.3129 7.04766 63.7641 7.42195 64.0863 7.90146C64.4085 8.38096 64.5747 8.93636 64.5849 9.56765H62.4734Z" fill="#FFC107"/>
</svg>
